<svg xmlns="http://www.w3.org/2000/svg" viewBox="0 0 1080 1080" width="1080" height="1080"><g transform="translate(747.0 554.0) rotate(0.0 -345.5 208.0) translate(-120.0 0.0) scale(-2.806307897868262 2.797579018157364)"><svg width="203.47" height="148.7" viewBox="42.761 0 203.47 148.7"><path d="M113.032 45.2h51.3c0 6.1-11.5 11-25.7 11-14.1 0-25.6-4.9-25.6-11z" fill="#142664"/><path d="M138.082 0a5.55 5.55 0 0 1 5.55 5.55V60.7h-11.1V5.55a5.55 5.55 0 0 1 5.55-5.55z" fill="#fff"/><path d="M132.532 42.9h11.1v-3.8h-11.1zm0-19h11.1v-3.8h-11.1z" fill="#142664"/><path d="M62.731 143.5 36.11 64.772a7 7 0 0 0-6.585-4.758c-8.819-.057-19.735-.121-24.482-.164a4.998 4.998 0 0 0-5.014 5.533l18.642 77.946a7 7 0 0 0 6.808 5.372h38.358z" fill="#ff2e93"/><path d="M210.732 62.4c6.8 2.5 12 8 14.3 14.8 5.7 17.5 15.895 48.6 20.895 63.8.6 1.8.3 3.7-.8 5.3-1.1 1.5-2.9 2.4-4.7 2.4h-184.7c-1.6 0-3-.6-4.1-1.7s-17.617-4.65-17.617-6.15L50.932 83.5s.9-2.8 2-6.2c2.3-6.9 7.5-12.3 14.3-14.8l45.9-17c.2 6 11.6 10.8 25.7 10.8 12.3 0 22.6-3.7 25.1-8.7.6-1.2 2-1.8 3.2-1.3 9.7 3.6 43.6 16.1 43.6 16.1z" fill="#ff2e93"/><path d="M135.132 64.1c-1.1-.1-2 .8-2 1.8-.1 1.1.8 2 1.8 2 1.1.1 2-.8 2-1.8.1-1-.8-1.9-1.8-2zm7.4-.1c-1.1.1-1.8 1-1.7 2.1s1 1.8 2.1 1.7c1.1-.1 1.8-1 1.7-2.1-.1-1-1.1-1.8-2.1-1.7zm-14.7-.8c-1-.2-2.1.5-2.3 1.5s.5 2.1 1.5 2.3c1 .2 2.1-.5 2.3-1.5.2-1.1-.5-2.1-1.5-2.3zm22-.3c-1 .2-1.7 1.3-1.4 2.3.2 1 1.3 1.7 2.3 1.4 1-.2 1.7-1.3 1.4-2.3-.2-1-1.3-1.7-2.3-1.4zm-29.1-1.7c-1-.4-2.1.1-2.5 1.1s.1 2.1 1.1 2.5c1 .4 2.1-.1 2.5-1.1s-.1-2.2-1.1-2.5zm36.2-.5c-1 .4-1.5 1.5-1.1 2.5s1.5 1.5 2.5 1.1c1-.4 1.5-1.5 1.1-2.5-.4-.9-1.5-1.4-2.5-1.1zm-42.9-2.7c-.9-.5-2.1-.2-2.6.7s-.2 2.1.7 2.6c.9.5 2.1.2 2.6-.7.6-.9.2-2-.7-2.6zm49.6-.4c-.9.5-1.2 1.7-.7 2.6s1.7 1.2 2.6.7c.9-.5 1.2-1.7.7-2.6-.6-.9-1.7-1.2-2.6-.7zm5.9-4.1c-.8.7-.9 1.9-.2 2.7s1.9.9 2.7.2c.8-.7.9-1.9.2-2.7-.6-.8-1.9-.9-2.7-.2zm62.6 90.3c1.1 0 1.9-.9 1.9-1.9 0-1.1-.9-1.9-1.9-1.9-1.1 0-1.9.9-1.9 1.9 0 1.1.8 1.9 1.9 1.9zm-7.7 0c1.1 0 1.9-.9 1.9-1.9 0-1.1-.9-1.9-1.9-1.9-1.1 0-1.9.9-1.9 1.9 0 1.1.9 1.9 1.9 1.9zm-7.7 0c1.1 0 1.9-.9 1.9-1.9 0-1.1-.9-1.9-1.9-1.9-1.1 0-1.9.9-1.9 1.9 0 1.1.9 1.9 1.9 1.9zm-7.6 0c1.1 0 1.9-.9 1.9-1.9 0-1.1-.9-1.9-1.9-1.9-1.1 0-1.9.9-1.9 1.9 0 1.1.8 1.9 1.9 1.9zm-7.7 0c1.1 0 1.9-.9 1.9-1.9 0-1.1-.9-1.9-1.9-1.9-1.1 0-1.9.9-1.9 1.9 0 1.1.8 1.9 1.9 1.9zm-7.7 0c1.1 0 1.9-.9 1.9-1.9 0-1.1-.9-1.9-1.9-1.9-1.1 0-1.9.9-1.9 1.9 0 1.1.9 1.9 1.9 1.9zm-7.6 0c1.1 0 1.9-.9 1.9-1.9 0-1.1-.9-1.9-1.9-1.9-1.1 0-1.9.9-1.9 1.9-.1 1.1.8 1.9 1.9 1.9zm-7.7 0c1.1 0 1.9-.9 1.9-1.9 0-1.1-.9-1.9-1.9-1.9-1.1 0-1.9.9-1.9 1.9 0 1.1.8 1.9 1.9 1.9zm-7.7 0c1.1 0 1.9-.9 1.9-1.9 0-1.1-.9-1.9-1.9-1.9-1.1 0-1.9.9-1.9 1.9 0 1.1.9 1.9 1.9 1.9zm-7.6 0c1.1 0 1.9-.9 1.9-1.9 0-1.1-.9-1.9-1.9-1.9-1.1 0-1.9.9-1.9 1.9-.1 1.1.8 1.9 1.9 1.9zm-7.7 0c1.1 0 1.9-.9 1.9-1.9 0-1.1-.9-1.9-1.9-1.9z" fill="#142664"/><path d="m155.332 148.666-31.6.034 29.5-16.8z" fill="#fff"/><path d="m79.232 96.4-8 27.4c-.3 1 .3 2.1 1.3 2.4s2.1-.3 2.4-1.3l8-27.4c.3-1-.3-2.1-1.3-2.4s-2.1.2-2.4 1.3zm69.4 52.3-7.4-10.3 3.8-2.1 9.4 2.1 1.9 10.3z" fill="#142664"/><path d="M115.532 125.6v11l-7.5-.6-2.9 9.9c-.3 1-2.4 1.6-3.4 1.3s-2.6-1.4-2.2-2.5l2.4-14.3c.5-1.7 2.1-2.8 3.8-2.8z" fill="#fff"/><path d="M150.132 121.6c0 .4 0 .7.1 1.1l.5 2.4-9.1 10.9-22.9-5-4.6 9.3c-.5 1-2.6 1.2-3.6.7s-2.3-1.9-1.8-2.8l4.9-13.7c.8-1.6 2.5-2.4 4.3-2.1z" fill="#fff"/><path d="M150.132 122.1c0 .2 0 .4.1.7l2.9 15.4h-.4l-27.2-2-2.9 9.9c-.3 1-2.4 1.6-3.4 1.3s-2.6-1.4-2.2-2.5l2.4-14.3c.5-1.7 2.1-2.8 3.8-2.8z" fill="#fff"/><g fill="#142664"><path d="M113.632 123.2c-.1-.5.2-1.1.6-1.4.7-.4 1.5-.2 2 .4 0 0 .9.9 1.9 2.2.3.3.5.6.7 1 .3.5.6 1 .8 1.5.9-.7 2-1.1 3.2-1.1.4-.1 1.2-.2 2.3-.4 2.4-.4 5.8-.8 5.8-.8.8-.2 1.5.3 1.7 1.1s-.3 1.5-1.1 1.7c0 0-3.2.9-5.6 1.6-1.3.4-2.4.6-2.4.6h-.1c.2.2.3.4.5.6.3.3.5.7.8 1.1.4.7.7 1.4 1 2 .6 1.2.9 2.1.9 2.1.4.7.2 1.5-.4 2-.7.4-1.5.2-2-.4 0 0-.7-.7-1.5-1.7-.4-.5-.9-1.1-1.3-1.8-.2-.4-.5-.8-.6-1.2 0-.1-.1-.1-.1-.2l-.7 3c-.1.8-.9 1.3-1.6 1.2-.8-.1-1.3-.9-1.2-1.6l.4-4.3c0-.1 0-.2.1-.2-.2-.2-.4-.5-.7-.8-.4-.5-.9-1-1.3-1.6-.2-.4-.4-.7-.6-1.1-.1-.3-.3-.6-.4-.8-.2.8-.6 2.5-1.2 4.4-.2.7-.4 1.4-.7 2.1-.4 1.2-.9 2.3-1.4 3.4-.8 1.9-1.5 3.3-1.5 3.3-.3.7-1.1 1.1-1.8.9-.7-.3-1.1-1.1-.9-1.8 0 0 0-.2.1-.4-.1-.1-.3-.2-.4-.3 0 0-1.1-.8-2.4-1.9l-.9-.9c-.5-.5-1-1.1-1.4-1.7-.8-1-1.2-1.8-1.2-1.8-.5-.6-.5-1.5 0-2 .6-.5 1.5-.5 2 0 0 0 .7.5 1.7 1.3.5.4 1.1.9 1.6 1.4.3.3.6.7.8 1 .4.5.7.9 1 1.3.3-1 .6-2.1 1-3.2.2-.7.5-1.4.8-2 1.1-2.6 2.1-4.6 2.1-4.6.4-.9 1-1.3 1.6-1.2zm23.7 13.7s.2-1.2.3-3c.1-.9.2-1.9.2-3 0-.6 0-1.2-.1-1.8-.2-2.3-.4-4.1-.4-4.1 0-.8-.6-1.4-1.4-1.4s-1.4.6-1.4 1.4c0 0-.3 1.9-.4 4.1 0 .6-.1 1.2-.1 1.8 0 1 .1 2.1.2 3 .1 1.7.3 3 .3 3 0 .8.6 1.4 1.4 1.4s1.4-.6 1.4-1.4zm41.7-21.2-23.4 2c-1.1.1-2.1.7-2.8 1.5s-.9 2-.7 3.1c1.3 7 3.5 17.966 4.7 24.166.2 1-.5 2-1.5 2.2s-2-.5-2.2-1.5c-1.2-6.2-3.4-17.166-4.7-24.166-.4-2.2.1-4.4 1.4-6.2s3.3-2.9 5.5-3.1c6.7-.6 17.1-1.5 24.1-2.1 1.2-.1 2.2-.7 2.9-1.7s.9-2.2.5-3.3c-1.3-4.6-2.8-9.7-2.8-9.7-.3-1 .3-2.1 1.3-2.4s2.1.3 2.4 1.3l2.8 9.7c.6 1.9.4 3.9-.5 5.7l17.1-1.3c1.1-.1 2 .7 2.1 1.8s-.7 2-1.8 2.1l-23.8 1.9c-.3.1-.5 0-.6 0z"/><path d="M183.632 95.9c-.3-1-1.4-1.5-2.4-1.2s-1.5 1.4-1.2 2.4c.3 1 1.4 1.5 2.4 1.2s1.5-1.4 1.2-2.4zm-1.4-7c-.1-1.1-1-1.9-2-1.8-1.1.1-1.9 1-1.8 2 .1 1.1 1 1.9 2 1.8 1 0 1.8-.9 1.8-2zm.6-7c.3-1-.3-2.1-1.3-2.4s-2.1.3-2.4 1.3c-.3 1 .3 2.1 1.3 2.4 1.1.4 2.1-.2 2.4-1.3zm3.1-6.1c.6-.8.5-2-.4-2.7-.8-.6-2-.5-2.7.4-.6.8-.5 2 .4 2.7.8.6 2 .4 2.7-.4zm5.1-4.7c.9-.6 1.2-1.7.6-2.6s-1.7-1.2-2.6-.6c-.9.6-1.2 1.7-.6 2.6.5.9 1.7 1.2 2.6.6zm6.5-2.8c1-.3 1.6-1.3 1.3-2.4-.3-1-1.3-1.6-2.4-1.3-1 .3-1.6 1.3-1.3 2.4.3 1 1.4 1.6 2.4 1.3zm14.4-.5c1 .2 2-.5 2.2-1.6.2-1-.5-2-1.6-2.2-1-.2-2 .5-2.2 1.6-.2 1 .6 2 1.6 2.2zm-7.3-.6c1.1 0 1.9-.9 1.9-2s-.9-1.9-2-1.9-1.9.9-1.9 2c.1 1.1 1 2 2 1.9zm-121.5 29.9c.3-1-.2-2.1-1.2-2.4s-2.1.2-2.4 1.2c-.3 1 .2 2.1 1.2 2.4 1 .4 2-.2 2.4-1.2zm1.6-7.9c.1-1.1-.7-2-1.8-2-1.1-.1-2 .7-2 1.8-.1 1.1.7 2 1.8 2 1 0 1.9-.8 2-1.8zm-.8-8.3c-.3-1-1.3-1.6-2.4-1.3-1 .3-1.6 1.3-1.3 2.4.3 1 1.3 1.6 2.4 1.3 1-.3 1.6-1.4 1.3-2.4zm-3.7-7.5c-.6-.8-1.8-1-2.7-.4-.8.6-1 1.8-.4 2.7.6.8 1.8 1 2.7.4s1.1-1.8.4-2.7zm-6.1-5.5c-.9-.6-2.1-.3-2.6.6-.6.9-.3 2.1.6 2.6.9.6 2.1.3 2.6-.6s.3-2.1-.6-2.6zm-7.6-3.3c-1-.3-2.1.3-2.4 1.3s.3 2.1 1.3 2.4c1 .3 2.1-.3 2.4-1.3.4-1.1-.2-2.1-1.3-2.4z"/></g><path d="M53.844 123.1 33.63 63.634a3 3 0 0 0-2.84-2.034H4.938" fill="none" stroke="#142664" stroke-linecap="round" stroke-miterlimit="10" stroke-width="4"/></svg></g><g transform="translate(1029.0 307.0) rotate(0.0 -254.0 264.5) translate(-0.37838817715879713 0.0) scale(-1.3487895410398423 1.3450429193279363)"><svg width="376.353" height="327.127" viewBox="0.281 0 376.353 327.127"><path d="M350.927 358.759c.137-7.326-5.94-13.268-13.269-13.268-.888 0-1.754.091-2.593.257-3.402-13.447-17.845-21-31.218-17.191-10.83 3.08-17.99 12.76-18.37 23.44a15.92 15.92 0 0 0-4.11-.55c-2.43 0-4.72.55-6.78 1.51-2.87-7.11-10.94-10.58-18.07-7.75a13.879 13.879 0 0 0-7.96 8.21c-2.3-1.26-4.93-1.97-7.73-1.97-2.58 0-5.02.61-7.17 1.69-1.12.55-2.16 1.23-3.11 2.02-1.16.49-2.27.72-3.31.72-12.18 0-16.54-32.18-19.561-76.73l-.18-2.63c-.54-8.23-1.04-16.86-1.55-25.77v-94.52h-56.87v94.52c-.51 8.91-1.01 17.54-1.55 25.77l-.18 2.63c-3.29 48.37-8.14 82.17-22.87 76.01a15.845 15.845 0 0 0-4.72-2.72c-1.32-.49-2.74-.81-4.2-.93a16.025 16.025 0 0 0-9.09 1.91c-1.31-3.62-4.1-6.68-7.96-8.21-7.13-2.83-15.2.64-18.07 7.75-2.06-.96-4.35-1.51-6.78-1.51-1.42 0-2.8.2-4.11.55-.38-10.68-9.935-16.139-20.755-19.219-13.45-3.83-36.941 4.635-31.28 17.42 5.319 12.008.16 34.057-17.511 36.842l59.908-.003c2.8 0 19.18-4.12 21.48-5.37 2.94 3.29 7.21 5.37 11.98 5.37 4.98 0 9.43-2.26 12.38-5.81 2.46 1.52 5.35 2.41 8.45 2.41 2.74 0 5.33-.69 7.59-1.9l55.3-.63 56.15.63c2.26 1.21 4.85 1.9 7.59 1.9 3.1 0 5.99-.89 8.45-2.41 2.95 3.55 7.4 5.81 12.38 5.81 4.76 0 9.03-2.08 11.98-5.37 2.3 1.25 18.68 5.37 21.48 5.37l72.594.003c-1.947-.042-17.245-3.646-16.785-28.281zM368 387.04h-.289c.188.004.289 0 .289 0z" fill="#142664"/><circle cx="76.634" cy="168.418" fill="#142664" r="66.732"/><circle cx="231.268" cy="71.415" fill="#142664" r="71.415"/><circle cx="81.317" cy="101.686" fill="#142664" r="71.415"/><circle cx="290" cy="148.516" fill="#142664" r="86.634"/><circle cx="165.805" cy="113.854" fill="#142664" r="86.634"/><path d="M172.927 217.097c0 5.6-1.56 10.85-4.27 15.31a29.738 29.738 0 0 1-9.99 9.99 29.3 29.3 0 0 1-9.59 3.7c-1.85.37-3.76.56-5.71.56-16.33 0-29.56-13.23-29.56-29.56 0-16.32 13.23-29.56 29.56-29.56 10.72 0 20.11 5.71 25.29 14.25a29.428 29.428 0 0 1 4.27 15.31z" fill="#142664"/><path d="M250.688 217.097c0 23.44-19 42.44-42.44 42.44-.6 0-1.2-.01-1.8-.04-13.22-.55-24.88-7.15-32.28-17.1a42.223 42.223 0 0 1-5.51-9.99c-1.84-4.75-2.85-9.91-2.85-15.31s1.01-10.56 2.85-15.31c6.14-15.87 21.55-27.13 39.59-27.13 23.44 0 42.44 19.01 42.44 42.44z" fill="#142664"/><circle cx="212.83" cy="113.854" fill="#142664" r="42.439"/><path d="M315.32 245.638a2 2 0 0 1-.033-4c5.803-.099 20.14-2.931 32.87-12.938 12.767-10.035 17.784-23.299 18.661-25.856a1.999 1.999 0 1 1 3.783 1.297c-.939 2.744-6.322 16.974-19.972 27.704-16.958 13.331-34.534 13.781-35.274 13.793h-.035zm-271.49-5.902c-.328 0-.66-.081-.968-.251a93.151 93.151 0 0 1-19.441-14.357 93.184 93.184 0 0 1-13.759-16.75 2 2 0 0 1 3.366-2.162 89.153 89.153 0 0 0 13.167 16.031 89.184 89.184 0 0 0 18.607 13.74 2 2 0 0 1-.972 3.749z" fill="#142664"/><path d="M210.244 359.197h-69.951s-9.128-3.439-6.566-6.427c7.786-9.081 11.145-37.228 13.62-73.623h60.33c2.39 35.243 5.617 62.745 12.892 72.698 1.921 2.628-10.325 7.352-10.325 7.352z" fill="#ff2e93"/><circle cx="143.595" cy="360.546" fill="#142664" r="12.585"/><circle cx="209.711" cy="358.18" fill="#142664" r="12.585"/><circle cx="175.964" cy="356.125" fill="#142664" r="7.902"/><circle cx="168.061" cy="347.961" fill="#142664" r="7.902"/><circle cx="165.281" cy="356.125" fill="#142664" r="7.902"/><circle cx="156.18" cy="354.516" fill="#142664" r="7.902"/><circle cx="190.488" cy="364.028" fill="#142664" r="10.683"/><path d="M207.308 273.627a10.596 10.596 0 0 0-6.14-1.94c-3.74 0-7.03 1.92-8.93 4.83h-2.51a10.587 10.587 0 0 0-5.86-1.76c-.5 0-.98.03-1.46.1-.4-5.54-5.01-9.9-10.65-9.9-5.9 0-10.68 4.78-10.68 10.68 0 .3.01.59.03.88h-2.16a7.891 7.891 0 0 0-6.36-3.22c-.8 0-1.57.12-2.29.33-.41-1.77-1.2-3.4-2.28-4.8.36-5.87.71-11.91 1.06-18.08v-4.65a29.3 29.3 0 0 0 9.59-3.7c2.918-1.936 7.284-6.735 7.284-6.735s3.628-.799 8.216 6.735c7.4 9.95 19.06 16.55 32.28 17.1.29 4.81.57 9.53.86 14.13z" fill="#ff2e93"/><g fill="#142664"><circle cx="171.134" cy="284.016" r="5.889"/><circle cx="192.415" cy="276.735" r="3.805"/><circle cx="161.22" cy="276.808" r="3.512"/><path d="M206.392 339.875a1.5 1.5 0 0 1-1.459-1.156 142.292 142.292 0 0 1-1.679-7.974 1.5 1.5 0 1 1 2.949-.547c.573 3.092.928 4.775 1.649 7.831a1.501 1.501 0 0 1-1.46 1.846zm-3.011-15.543a1.5 1.5 0 0 1-1.481-1.275 197.402 197.402 0 0 1-2.212-32.074 1.5 1.5 0 0 1 1.5-1.48h.02a1.5 1.5 0 0 1 1.48 1.52 194.092 194.092 0 0 0 2.179 31.584 1.5 1.5 0 0 1-1.486 1.725zm-6.949 24.413a1.502 1.502 0 0 1-1.479-1.256c-.481-2.923-.938-5.92-1.353-8.907a1.5 1.5 0 1 1 2.97-.414c.413 2.962.864 5.934 1.343 8.833a1.5 1.5 0 0 1-1.481 1.744zm-3.332-26.232a1.5 1.5 0 0 1-1.492-1.366c-.49-5.48-.858-11.035-1.095-16.509a1.5 1.5 0 0 1 1.435-1.563c.821-.049 1.527.606 1.563 1.434.233 5.428.599 10.936 1.085 16.37a1.5 1.5 0 0 1-1.496 1.634zm-1.289-22.107c-.81 0-1.477-.645-1.498-1.459a361.914 361.914 0 0 1-.135-9.688 1.5 1.5 0 0 1 1.499-1.501h.001a1.5 1.5 0 0 1 1.5 1.499c.002 3.206.047 6.438.133 9.608a1.5 1.5 0 0 1-1.458 1.541h-.042zm-6.65 60.829a1.5 1.5 0 0 1-1.491-1.354 710.54 710.54 0 0 1-1.467-17.202 1.499 1.499 0 0 1 1.387-1.605 1.507 1.507 0 0 1 1.605 1.387c.415 5.686.906 11.449 1.461 17.13a1.5 1.5 0 0 1-1.495 1.644zm-1.972-24.727a1.5 1.5 0 0 1-1.496-1.407 702.153 702.153 0 0 1-1.161-27.134 1.502 1.502 0 0 1 1.465-1.535h.036a1.5 1.5 0 0 1 1.499 1.465 696.225 696.225 0 0 0 1.155 27.018 1.499 1.499 0 0 1-1.498 1.593zm-1.295-34.687a1.5 1.5 0 0 1-1.5-1.481 712.798 712.798 0 0 1-.049-12.084 1.5 1.5 0 0 1 1.5-1.493h.007a1.5 1.5 0 0 1 1.493 1.507c-.018 4.027-.002 8.076.049 12.032a1.5 1.5 0 0 1-1.481 1.519h-.019zm-35.718 48.51a1.5 1.5 0 0 1-1.439-1.928 194.463 194.463 0 0 0 6.941-34.664 1.5 1.5 0 0 1 2.982.317c-.265 2.492-.584 5.02-.947 7.515a197.207 197.207 0 0 1-6.101 27.687 1.499 1.499 0 0 1-1.436 1.073zm12.549-8.307a1.5 1.5 0 0 1-1.473-1.793c.212-1.067.42-2.147.621-3.243a1.5 1.5 0 0 1 2.951.544 231.885 231.885 0 0 1-.631 3.285 1.499 1.499 0 0 1-1.468 1.207zm1.559-8.689a1.5 1.5 0 0 1-1.483-1.737c.188-1.175.369-2.365.543-3.568a1.5 1.5 0 1 1 2.969.428 232.161 232.161 0 0 1-.549 3.614 1.5 1.5 0 0 1-1.48 1.263zm1.686-12.783a1.501 1.501 0 0 1-1.494-1.655c.377-3.626.67-7.301.873-10.924.047-.827.759-1.445 1.582-1.414a1.5 1.5 0 0 1 1.414 1.582c-.206 3.67-.504 7.393-.885 11.065a1.5 1.5 0 0 1-1.49 1.346zm1.13-16.708-.048-.001a1.499 1.499 0 0 1-1.452-1.546c.046-1.477.078-2.932.098-4.363a1.5 1.5 0 0 1 1.5-1.479h.021a1.5 1.5 0 0 1 1.479 1.521 241.61 241.61 0 0 1-.1 4.417 1.5 1.5 0 0 1-1.498 1.451zm3.506 55.226a1.502 1.502 0 0 1-1.481-1.753 407.46 407.46 0 0 0 4.473-35.412 1.51 1.51 0 0 1 1.617-1.373c.826.068 1.44.792 1.373 1.618a410.725 410.725 0 0 1-4.506 35.674 1.5 1.5 0 0 1-1.476 1.246zm5.166-45.261-.088-.002a1.5 1.5 0 0 1-1.41-1.584c.493-8.527.718-17.183.669-25.725a1.5 1.5 0 0 1 1.491-1.509h.009a1.5 1.5 0 0 1 1.5 1.491c.05 8.606-.178 17.325-.675 25.915a1.5 1.5 0 0 1-1.496 1.414z"/></g><path d="M259.308 231.647c-14.41-5.12-27.134-25.904-31.454-52.205-2.12-12.89-2.316-25.045.004-35.335.6-2.62 1.31-5.11 2.15-7.45.85 1.14 1.73 2.21 2.64 3.23-.2 2.91-.873 4.563-.842 7.653.04 6.99.172 19.157 1.707 26.683 7.463 36.585 14.825 42.514 26.245 52.874 1.53 1.38 1.159 5.12-.45 4.55zM134.203 112.475c-1.845 13.05-7.758 25.27-16.432 34.59a59.207 59.207 0 0 1-4.384 4.24c-12.8 11.2-30.212 16.57-49.119 11.08-8.08-2.35-14.309-12.17.393-6.45 17.177 5 32.458.76 44.278-8.59a58.74 58.74 0 0 0 4.333-3.8c8.588-8.33 14.917-19.49 18.235-31.49.573-2.05 2.997-1.67 2.696.42z" fill="#ff2e93"/><path d="M283.578 152.367c-13.75 10.36-35.47 11.03-51.19-3.46a46.263 46.263 0 0 1-4.53-4.8 52.92 52.92 0 0 1-4.95-7.22c-3.46-6.04-2.54-17.96 3.12-6.28 1.25 2.18 2.58 4.19 3.98 6.05.85 1.14 1.73 2.21 2.64 3.23 14.39 16.24 34.85 18.29 49.62 10.63 1.21-.62 2.39 1.03 1.31 1.85zM134.88 138.095c-5.714-2.53-12.322-12.265-1.898-6.744 23.243 10.303 40.838-1.696 45.841-19.122.351-1.224 2.059-.67 1.898.617-2.51 20.068-20.928 36.281-45.841 25.249zm111.408-50.43c-6.214-1.393-12.311-8.392-1.119-5.134 25.276 5.675 47.577-5.694 56.161-20.014.603-1.006 2.492-.749 2.1.286-6.118 16.145-30.047 30.935-57.142 24.862zm-96.021 142.093c-5.833-3.799-10.445-14.822-.088-7.01 23.721 15.463 47.878 7.891 59.136-7.906.791-1.109 2.597-.171 2.007 1.044-9.194 18.953-35.625 30.435-61.055 13.872zm149.026 151.026H55.927a3 3 0 0 0-3 3v6.512a3 3 0 0 0 3 3h243.366a3 3 0 0 0 3-3v-6.512a3 3 0 0 0-3-3z" fill="#ff2e93"/><path d="M220.67 267.775a10.243 10.243 0 0 0-10.201 5.881c-.447.96-1.679 1.164-2.492.485a10.596 10.596 0 0 0-6.81-2.454c-3.74 0-5.878 1.207-8.266 3.922-.357.406-3.095.977-3.725.567-1.68-1.11-3.139-1.42-5.309-1.42-.5 0-.98.03-1.46.1-.4-5.54-5.01-9.9-10.65-9.9-5.9 0-10.82 4.289-10.775 10.189.014 1.867-1.691 1.472-2.13.88-1.44-1.95-3.654-2.729-6.265-2.729-.2 0-.398.008-.594.022a2.19 2.19 0 0 1-2.225-1.401 12.568 12.568 0 0 0-1.751-3.092c-2.332-3.008-5.989-4.937-10.087-4.899-6.629.06-12.206 5.481-12.454 12.105-.269 7.171 5.46 13.065 12.571 13.065.481 0 .954-.036 1.421-.088a7.796 7.796 0 0 0-.194 4.865c.817 2.917 3.299 5.176 6.29 5.658a7.908 7.908 0 0 0 9.217-7.796c0-.146-.014-.289-.022-.433a7.902 7.902 0 0 0 14.034-4.982c0-.145 1.928-.003 2.964-.003.089 0 .177-.001.265-.003a1.325 1.325 0 0 1 1.345 1.084 10.678 10.678 0 0 0 10.501 8.728c4.32 0 8.03-2.56 9.71-6.24a10.618 10.618 0 0 0 10.424 2.777 7.902 7.902 0 0 0 14.437-4.442c0-.032.868 0 1.317 0 6.043 0 10.863-5.233 10.179-11.414-.529-4.774-4.477-8.617-9.265-9.032z" fill="#142664"/></svg></g><g transform="translate(215.0 327.0) rotate(0.0 128.0 167.5) scale(2.2219329080414876 2.207927448163136)"><svg width="115.215" height="151.726" viewBox="0 0 115.215 151.726"><path d="M107.158 50.509c.999-.037 1.984-.474 2.653-1.3.67-.826.932-1.836.695-2.828-5.08-26.128-28.515-45.366-55.896-44.342C24.431 3.168.764 28.571 1.896 58.849c.591 15.789 7.817 29.729 18.783 39.325a4.356 4.356 0 0 0 2.939.991l15.989-.598c1.199-.045 2.417.41 3.254 1.379 1.148 1.258 2.71 2.901 3.858 4.159.833.869 2.055 1.424 3.254 1.379l6.096-.228a4.269 4.269 0 0 1 4.458 4.136l.026.7a4.268 4.268 0 0 0 4.458 4.136l44.269-1.656a4.268 4.268 0 0 0 4.136-4.458l-.931-24.883a4.012 4.012 0 0 0-4.147-3.848c-2.099.078-4.227-.642-5.786-2.185-1.555-1.443-2.533-3.508-2.611-5.606l-.471-12.591c-.078-2.099.642-4.227 2.185-5.786 1.336-1.749 3.305-2.624 5.503-2.706z" fill="#fff"/><path d="M76.605 4.932a2.002 2.002 0 0 1-2.654 1.965 52.568 52.568 0 0 0-19.266-2.859c-23.568.881-43.871 17.499-49.375 40.41a1.999 1.999 0 0 1-2.411 1.478 1.997 1.997 0 0 1-1.478-2.411C7.341 18.866 29.183.989 54.535.041a56.57 56.57 0 0 1 20.726 3.076 2.001 2.001 0 0 1 1.344 1.815zm35.448 39.99c-3.151-14.692-11.928-27.273-23.933-35.23-.922-.566-2.113-.321-2.683.501-.566.922-.321 2.113.501 2.683 11.188 7.487 19.431 19.187 22.345 32.888.237.992 1.263 1.654 2.258 1.517 1.091-.241 1.753-1.267 1.512-2.359z" fill="#142664"/><path d="M35.386 103.429c-.245-1.192.11-2.406.876-3.335s1.846-1.47 3.045-1.515l.4-.015c1.199-.045 2.417.41 3.15 1.283 1.351 1.35 3.232 3.482 4.38 4.74.522.581.952 1.365 1.082 2.161.638 3.679 2.556 14.815 3.449 19.985.26 1.591 1.511 2.946 3.125 3.285.807.17 1.718.436 2.624.602.907.166 1.802.033 2.587-.397.781-.53 1.354-1.252 1.52-2.158.166-.907.736-1.729 1.52-2.158.784-.43 1.776-.667 2.687-.401 6.566 1.656 21.017 5.418 28.091 7.255 1.11.259 1.936.928 2.573 1.905.537.981.678 2.076.419 3.187-.699 2.728-1.667 6.267-2.365 8.995-.259 1.11-.928 1.936-1.905 2.573-.981.537-2.076.678-3.187.419-9.802-2.535-34.565-9.114-42.753-11.31-1.618-.44-2.765-1.698-3.025-3.289-.638-3.679-1.68-10.144-2.062-12.332-.119-.496-.237-.992-.556-1.48-.748-1.273-2.559-4.207-3.307-5.48a5.782 5.782 0 0 1-.552-1.38c-.177-2.095-1.071-7.265-1.816-11.14z" fill="#fff"/><g fill="#142664"><path d="M52.599 60.656c-.078-2.099.642-4.227 2.185-5.786 1.443-1.555 3.508-2.533 5.606-2.611 2.099-.078 4.227.642 5.786 2.185 1.555 1.443 2.533 3.508 2.611 5.606l.471 12.591c.078 2.099-.642 4.227-2.185 5.786-1.443 1.555-3.508 2.533-5.606 2.611-2.099.078-4.227-.642-5.786-2.185-1.555-1.443-2.533-3.508-2.611-5.606l-.471-12.591zm56.947-7.834c.289-.311.47-.818.251-1.31-.119-.496-.53-.781-1.033-.862-.603-.078-1.107-.159-1.706-.136-2.099.078-4.167.956-5.606 2.611-1.443 1.555-2.264 3.687-2.185 5.786l.471 12.591c.078 2.099.956 4.167 2.611 5.606 1.555 1.443 3.687 2.264 5.786 2.185.6-.022 1.095-.141 1.691-.263.496-.119.784-.43.966-.937.081-.503-.034-.899-.348-1.288-1.555-1.443-2.533-3.508-2.611-5.606l-.471-12.591c-.079-2.099.741-4.231 2.184-5.786zM94.655 88.103s-.03-.799-.271-1.891c-.122-.596-.245-1.192-.567-1.78a4.688 4.688 0 0 0-.537-.981c-.844-1.169-1.677-2.039-1.677-2.039-.541-1.081-1.759-1.535-2.839-.995-1.081.541-1.535 1.759-.995 2.839 0 0 .145 1.195.497 2.583.115.396.226.692.341 1.088.322.588.641 1.077.959 1.565a10.809 10.809 0 0 0 1.255 1.454c.541 1.081 1.759 1.535 2.839.995a2.266 2.266 0 0 0 .995-2.838zm-14.73 2.152s.477-.618 1.143-1.544c.281-.511.662-1.025.84-1.633.089-.304.174-.707.259-1.11.247-1.41.303-2.613.303-2.613.459-1.118-.186-2.295-1.204-2.757-1.118-.459-2.295.186-2.757 1.204 0 0-.766.929-1.52 2.158-.189.307-.377.615-.462 1.018-.177.607-.355 1.214-.432 1.817-.159 1.107-.129 1.906-.129 1.906-.459 1.118.186 2.295 1.204 2.757 1.116.459 2.396-.089 2.755-1.203z"/><path d="m104.604 110.647 4.597-.172c1.299-.049 2.261-1.085 2.212-2.384l-.916-24.483a1.9 1.9 0 0 1 1.828-1.97 1.9 1.9 0 0 1 1.97 1.828l.916 24.483c.127 3.398-2.566 6.3-5.964 6.427l-44.269 1.656c-3.398.127-6.3-2.566-6.427-5.964l-.026-.7c-.049-1.299-1.085-2.261-2.384-2.212l-5.796.217 3.312 18.989c.134.896.859 1.569 1.666 1.739s1.718.436 2.624.602c.403.085.803.07 1.095-.141s.581-.522.666-.926c.347-1.414 1.202-2.647 2.475-3.395s2.764-1.004 4.078-.653c6.566 1.656 21.017 5.418 28.091 7.255 1.518.444 2.854 1.394 3.706 2.763s1.015 3.064.672 4.578c-.699 2.728-1.667 6.267-2.365 8.995-.444 1.518-1.394 2.854-2.763 3.706s-3.064 1.015-4.578.672c-9.802-2.535-34.565-9.114-42.753-11.31-2.325-.614-3.998-2.552-4.384-4.84-.638-3.679-1.68-10.144-2.062-12.332-.011-.3-.119-.496-.33-.788-.748-1.273-2.559-4.207-3.307-5.48-.422-.585-.648-1.277-.778-2.072l-1.91-10.936c-.137-.996-.078-2.099.288-3.013l-6.495.243c-4.097.153-8.158-1.396-11.072-4.389C6.648 86.891.551 73.71.001 59.02a1.9 1.9 0 0 1 1.828-1.97 1.9 1.9 0 0 1 1.97 1.828c.512 13.69 6.176 25.987 15.121 35.059 2.181 2.12 5.127 3.311 8.225 3.195l12.391-.463.1-.004c1.799-.067 3.428.672 4.675 1.927l3.958 4.155c.418.485 1.129.758 1.829.732l6.096-.228c3.398-.127 6.3 2.566 6.427 5.964l.026.7c.049 1.299 1.085 2.261 2.384 2.212l4.597-.172c-.011-.3-.126-.696-.137-.996-.015-.4-.13-.796-.148-1.295-.026-.7.044-1.503.121-2.106.055-1.203.221-2.11.221-2.11-.03-.799.547-1.421 1.347-1.451.799-.03 1.421.547 1.451 1.347 0 0 .234.892.378 2.087.122.596.252 1.392.278 2.091.015.4.03.799-.051 1.303.015.4-.074.703-.063 1.003l7.095-.265c-.011-.3-.126-.696-.137-.996-.015-.4-.13-.796-.148-1.295-.026-.7.044-1.503.121-2.106.055-1.203.221-2.11.221-2.11-.03-.799.547-1.421 1.347-1.451.799-.03 1.421.547 1.451 1.347 0 0 .234.892.378 2.087.122.596.252 1.392.278 2.091.015.4.03.799-.051 1.303.015.4-.074.703-.063 1.003l7.095-.265c-.011-.3-.126-.696-.137-.996-.015-.4-.13-.796-.148-1.295-.026-.7.044-1.503.121-2.106.055-1.203.221-2.11.221-2.11-.03-.799.547-1.421 1.347-1.451.799-.03 1.421.547 1.451 1.347 0 0 .234.892.378 2.087.122.596.252 1.392.278 2.091.015.4.03.799-.051 1.303.015.4-.074.703-.063 1.003l7.095-.265c-.011-.3-.126-.696-.137-.996-.015-.4-.13-.796-.148-1.295-.026-.7.044-1.503.121-2.106.055-1.203.221-2.11.221-2.11-.03-.799.547-1.421 1.347-1.451.799-.03 1.421.547 1.451 1.347 0 0 .234.892.378 2.087.122.596.252 1.392.278 2.091.015.4.03.799-.051 1.303.118.394.029.698.04.998zm-66.585-3.714 1.268 7.158c.011.3.119.496.33.788.748 1.273 2.459 4.211 3.307 5.48a5.79 5.79 0 0 1 .778 2.072c.382 2.187 1.424 8.653 2.062 12.332.134.896.759 1.573 1.666 1.739 8.084 2.099 32.947 8.675 42.753 11.31.607.177 1.203.055 1.691-.263s.869-.833 1.051-1.34c.699-2.728 1.667-6.267 2.365-8.995.177-.607.055-1.203-.263-1.691s-.833-.869-1.34-1.051l-2.021-.525.007.2c-.077.603-.148 1.406-.321 2.113-.085.403-.27.811-.355 1.214-.543 1.521-1.098 2.743-1.098 2.743-.174.707-.954 1.237-1.761 1.067s-1.237-.954-1.067-1.761c0 0 .051-1.303.291-2.913l.255-1.21c.174-.707.447-1.418.725-2.029-.004-.1.096-.104.092-.204l-6.87-1.744.007.2c-.077.603-.151 1.307-.321 2.113-.085.403-.27.811-.355 1.214-.543 1.521-1.098 2.743-1.098 2.743-.174.707-.954 1.237-1.761 1.067s-1.237-.954-1.067-1.761c0 0 .051-1.303.291-2.913l.255-1.21c.174-.707.447-1.418.725-2.029-.004-.1.092-.204.092-.204l-6.87-1.744.007.2c-.077.603-.148 1.406-.321 2.113-.085.403-.27.811-.355 1.214-.543 1.521-1.098 2.743-1.098 2.743-.17.807-.954 1.237-1.761 1.067-.707-.174-1.237-.954-1.067-1.761 0 0 .051-1.303.291-2.913l.255-1.21c.174-.707.447-1.418.725-2.029-.004-.1.092-.204.092-.204l-2.225-.617c-.403-.085-.803-.07-1.195.145s-.581.522-.666.926c-.347 1.414-1.206 2.547-2.379 3.291s-2.664 1-4.078.653c-.907-.166-1.817-.432-2.624-.602-2.321-.514-4.194-2.445-4.584-4.832l-2.307-13.523-4.702-5.328c-.733-.873-1.851-1.332-3.05-1.287z"/></g></svg></g><g transform="translate(996.0 715.0) rotate(0.0 -336.5 127.5) scale(-2.77674629698395 2.7808069792802614)"><svg width="242.37" height="91.7" viewBox="0 0 242.37 91.7"><path d="M117.65 2c1.4 0 2.8.8 3.5 2 5.6 9.8 30.3 52.4 39.5 68.4.7 1.2.7 2.8 0 4s-2.1 2-3.5 2H45.45c-1.4 0-2.8-.8-3.5-2C36.35 66.6 11.65 24 2.45 8c-.7-1.2-.7-2.8 0-4s2.1-2 3.5-2zm62.3 78.4c-.7-1.2-2.1-2-3.5-2H63.65c-1.4 0-2.8.8-3.5 2s-.7 2.8 0 4 1.4 2.4 1.9 3.3c.7 1.2 2.1 2 3.5 2h112.8c1.4 0 2.8-.8 3.5-2s.7-2.8 0-4-1.4-2.3-1.9-3.3z" fill="#00e6b3"/><path d="M178.35 91.62H65.55c-2.09 0-4.11-1.16-5.16-2.95-.52-.93-1.21-2.11-1.9-3.3-1.05-1.8-1.05-4.13 0-5.93 1.05-1.79 3.07-2.95 5.16-2.95h112.8c2.09 0 4.11 1.16 5.16 2.95.02.04.04.07.06.11.32.64.75 1.37 1.21 2.13.21.34.42.7.63 1.06 1.05 1.8 1.05 4.13 0 5.93-1.06 1.79-3.08 2.95-5.16 2.95zm-114.7-11.3c-.71 0-1.49.44-1.84 1.05-.35.6-.35 1.47 0 2.07.71 1.21 1.42 2.43 1.92 3.34.33.57 1.11 1.01 1.82 1.01h112.8c.71 0 1.49-.44 1.84-1.05.35-.6.35-1.47 0-2.07-.2-.35-.41-.69-.61-1.02-.48-.81-.94-1.57-1.32-2.32-.37-.59-1.12-1.01-1.82-1.01z" fill="#142664"/><path d="M237.95 80.4c-.7-1.2-2.1-2-3.5-2h-56.9c-1.4 0-2.8.8-3.5 2s-.7 2.8 0 4 1.4 2.4 1.9 3.3c.7 1.2 2.1 2 3.5 2h56.9c1.4 0 2.8-.8 3.5-2s.7-2.8 0-4-1.4-2.3-1.9-3.3z" fill="#00e6b3"/><g fill="#142664"><path d="M77.65 82.3h-9.1c-1.1 0-1.9.9-1.9 1.9 0 1.1.9 1.9 1.9 1.9h9.1c1.1 0 1.9-.9 1.9-1.9 0-1.1-.9-1.9-1.9-1.9z"/><path d="m241.55 82.8-1.9-3.3c-1.1-1.9-3.1-3-5.2-3h-58.6c.6-1.7.5-3.5-.4-5.1-9.2-16-33.9-58.6-39.5-68.4-1.1-1.9-3.1-3-5.2-3l-39.5.1c-1 0-1.9.9-1.9 1.9s.8 1.9 1.9 1.9h27.7l41.9 72.6H45.25c-1 0-1.9.8-1.9 1.9 0 1 .8 1.9 1.9 1.9h126.7c-.6 1.7-.5 3.5.4 5.1.7 1.2 1.4 2.4 1.9 3.3 1.1 1.9 3.1 3 5.2 3h56.9c2.2 0 4.1-1.2 5.2-3s1.1-4.1 0-5.9zm-3.4 4c-.3.7-1 1.1-1.8 1.1h-56.9c-.7 0-1.4-.4-1.8-1.1-.5-.9-1.2-2.1-1.9-3.3-.4-.6-.4-1.4 0-2.1.3-.7 1-1.1 1.8-1.1h56.9c.7 0 1.4.4 1.8 1.1l1.9 3.3c.4.6.4 1.4 0 2.1z"/><path d="M217.45 82.3h-2.9c-1.1 0-1.9.9-1.9 1.9-.1 1.1.8 1.9 1.9 1.9h2.9c1.1 0 1.9-.9 1.9-1.9 0-1.1-.9-1.9-1.9-1.9z"/><circle cx="189.35" cy="84.2" r="2.6"/></g></svg></g><g transform="translate(117.0 120.0) rotate(0.0 50.0 50.0) scale(0.6666666666666666 0.6666666666666666)"><svg width="150" height="150" viewBox="0 0 150 150"><path d="M52 94V40a4 4 0 0 1 4-4l75.914 14.544C135.656 48.491 150 36.71 150 32V6a6 6 0 0 0-6-6H24C18.477 0 7.594 12.246 3.555 18.358L16 36v88c0 5.523 4.477 10 10 10h88l16.425 13.66C136.573 144.452 150 131.523 150 126V73a6 6 0 0 0-6-6H87c-3.772-.095-13.381 11.076-17.999 17.534l11.934 1.152a6 6 0 0 0 6 6h21c2.209 0 6.064-7.394 6.064-5.185V94a4 4 0 0 1-4 4H56a4 4 0 0 1-4-4z" fill="#00e6b3"/><g fill="#142664"><path d="M36 110V56a4 4 0 0 1 4-4h88a6 6 0 0 0 6-6V22a6 6 0 0 0-6-6H10C4.477 16 0 20.477 0 26v114c0 5.523 4.477 10 10 10h114c5.523 0 10-4.477 10-10V89a6 6 0 0 0-6-6H73a6 6 0 0 0-6 6v3.5a6 6 0 0 0 6 6h21a4 4 0 0 1 4 4v7.5a4 4 0 0 1-4 4H40a4 4 0 0 1-4-4z"/><path d="M134.584 17.753s1.578-1.343 3.687-3.194c1.062-1.017 2.336-2.139 3.535-3.329.668-.681 1.381-1.42 1.972-2.168 2.473-2.801 4.46-5.151 4.46-5.151.485-.451.273-1.324-.288-1.919-.637-.662-1.487-.73-1.927-.336 0 0-2.367 2.014-5.098 4.489-.743.614-1.411 1.295-2.124 2.034-1.198 1.189-2.321 2.446-3.307 3.53-1.881 2.053-3.201 3.722-3.201 3.722-.486.451-.273 1.324.288 1.919.713.729 1.639.864 2.003.403zm.701 67.53s1.578-1.343 3.687-3.194c1.062-1.017 2.336-2.139 3.535-3.329.668-.681 1.381-1.42 1.972-2.168 2.473-2.801 4.46-5.151 4.46-5.151.485-.451.273-1.324-.288-1.919-.637-.662-1.487-.73-1.927-.336 0 0-2.367 2.014-5.098 4.489-.743.614-1.411 1.295-2.124 2.034-1.198 1.189-2.321 2.446-3.307 3.53-1.881 2.053-3.201 3.722-3.201 3.722-.486.451-.273 1.324.288 1.919.713.729 1.639.864 2.003.403zm-96 27.708s1.578-1.343 3.687-3.194c1.062-1.017 2.336-2.139 3.535-3.329.668-.681 1.381-1.42 1.972-2.168 2.473-2.801 4.46-5.151 4.46-5.151.485-.451.273-1.324-.288-1.919-.637-.662-1.487-.73-1.927-.336 0 0-2.367 2.014-5.098 4.489-.743.614-1.411 1.295-2.124 2.034-1.198 1.189-2.321 2.446-3.307 3.53-1.881 2.053-3.201 3.722-3.201 3.722-.486.451-.273 1.324.288 1.919.713.729 1.639.863 2.003.403z"/></g></svg></g><g transform="translate(212.0 120.0) rotate(0.0 50.0 50.0) scale(0.6662891028417229 0.6662891028417229)"><svg width="150.085" height="150.085" viewBox="0 0 150.085 150.085"><path d="M147.152 33.071 117.014 2.929A10.001 10.001 0 0 0 109.943 0H56.228a10.001 10.001 0 0 0-7.071 2.929L19.018 33.071a10.003 10.003 0 0 0-2.929 7.07L16.085 128a6 6 0 0 0 6 6l11.948 14.525c4.183-2.621 17.866-13.889 18.052-18.525v-23a4 4 0 0 1 4-4h54a4 4 0 0 1 4 4v21a6 6 0 0 0 6 6l11.949 14.525c3.243-1.999 18.051-13.669 18.051-18.526l-.004-89.858c0-2.651-1.054-5.194-2.929-7.07zM52.085 63V52.571c0-1.061.421-2.078 1.171-2.828l12.57-12.571A4.002 4.002 0 0 1 68.655 36h28.86a4 4 0 0 1 2.829 1.172l12.57 12.571a3.999 3.999 0 0 1 1.171 2.828V63a4 4 0 0 1-4 4h-54a4 4 0 0 1-4-4z" fill="#00e6b3"/><g fill="#142664"><path d="m131.067 49.157-30.138-30.142a9.997 9.997 0 0 0-7.071-2.929H40.142a10.001 10.001 0 0 0-7.071 2.929L2.932 49.157a10.003 10.003 0 0 0-2.929 7.07L0 144.085a6 6 0 0 0 6 6h24a6 6 0 0 0 6-6v-21a4 4 0 0 1 4-4h54a4 4 0 0 1 4 4v21a6 6 0 0 0 6 6h24a6 6 0 0 0 6-6l-.004-87.858a10.003 10.003 0 0 0-2.929-7.07zM36 79.085V68.657c0-1.061.421-2.078 1.171-2.828l12.57-12.571a4.002 4.002 0 0 1 2.829-1.172h28.86a4 4 0 0 1 2.829 1.172l12.57 12.571A3.999 3.999 0 0 1 98 68.657v10.429a4 4 0 0 1-4 4H40a4.001 4.001 0 0 1-4-4.001zm65.326-61.489s1.578-1.343 3.687-3.194c1.062-1.017 2.336-2.139 3.535-3.329.668-.681 1.381-1.42 1.972-2.168 2.473-2.801 4.46-5.151 4.46-5.151.485-.451.273-1.324-.288-1.919-.637-.662-1.487-.73-1.927-.336 0 0-2.367 2.014-5.098 4.489-.743.614-1.411 1.295-2.124 2.034-1.198 1.189-2.321 2.446-3.307 3.53-1.881 2.053-3.201 3.722-3.201 3.722-.486.451-.273 1.324.288 1.919.713.729 1.638.863 2.003.403zm34.17 34.858s1.578-1.343 3.687-3.194c1.062-1.017 2.336-2.139 3.535-3.329.668-.681 1.381-1.42 1.972-2.168 2.473-2.801 4.46-5.151 4.46-5.151.485-.451.273-1.324-.288-1.919-.637-.662-1.487-.73-1.927-.336 0 0-2.367 2.014-5.098 4.489-.743.614-1.411 1.295-2.124 2.034-1.198 1.189-2.321 2.446-3.307 3.53-1.881 2.053-3.201 3.722-3.201 3.722-.486.451-.273 1.324.288 1.919.714.729 1.639.864 2.003.403z"/><path d="M39.643 81.723s1.578-1.343 3.687-3.194c1.062-1.017 2.336-2.139 3.535-3.329.668-.681 1.381-1.42 1.972-2.168 2.473-2.801 4.46-5.151 4.46-5.151.485-.451.273-1.324-.288-1.919-.637-.662-1.487-.729-1.927-.336 0 0-2.367 2.014-5.098 4.489-.743.614-1.411 1.295-2.124 2.034-1.198 1.189-2.321 2.446-3.307 3.53-1.881 2.053-3.201 3.722-3.201 3.722-.486.451-.273 1.324.288 1.919.713.729 1.638.863 2.003.403z"/></g></svg></g><g transform="translate(307.0 120.0) rotate(0.0 50.0 50.0) scale(0.6666666666666666 0.6666666666666666)"><svg width="150" height="150" viewBox="0 0 150 150"><path d="m91.241 16.928-7.302 44.004c-.32.875-1.558.875-1.878 0L61.192 3.937A6 6 0 0 0 55.557 0H20C16.686 0 4.338 14.515 2.045 17.492L16 128a6 6 0 0 0 6 6l12.032 14.44C39.35 143.771 52 133.314 52 130V66.571c0-1.06 1.432-1.392 1.898-.44l14.456 29.508a6 6 0 0 0 5.388 3.36l5.977 14.9c3.533-2.263 16.92-14.203 17.927-16.26l14.455-31.507c.466-.952 1.898-.62 1.898.44V128a6 6 0 0 0 6 6l12.033 14.44C136.253 145.246 150 133.314 150 130V6a6 6 0 0 0-6-6h-35.557c-2.519 0-14.874 14.002-17.202 16.928z" fill="#00e6b3"/><g fill="#142664"><path d="M45.191 17.194s1.578-1.343 3.687-3.194c1.062-1.017 2.336-2.139 3.535-3.329.668-.681 1.381-1.42 1.972-2.168 2.473-2.801 4.46-5.151 4.46-5.151.485-.451.273-1.324-.288-1.919-.637-.662-1.487-.73-1.927-.336 0 0-2.367 2.014-5.098 4.489-.743.614-1.41 1.295-2.123 2.034-1.198 1.189-2.321 2.446-3.307 3.53-1.881 2.053-3.201 3.722-3.201 3.722-.486.451-.273 1.324.288 1.919.712.729 1.638.864 2.002.403zm89.677.897s1.578-1.343 3.687-3.194c1.062-1.017 2.336-2.139 3.535-3.329.667-.681 1.381-1.42 1.972-2.168 2.473-2.801 4.46-5.151 4.46-5.151.485-.451.273-1.324-.288-1.919-.637-.662-1.487-.73-1.927-.336 0 0-2.367 2.014-5.098 4.489-.743.614-1.411 1.295-2.124 2.034-1.198 1.189-2.321 2.446-3.307 3.53-1.881 2.053-3.201 3.722-3.201 3.722-.486.451-.273 1.324.288 1.919.713.728 1.639.863 2.003.403z"/><path d="M88.808 19.937 67.939 76.931c-.32.875-1.558.875-1.878 0L45.192 19.937A6 6 0 0 0 39.557 16H6a6 6 0 0 0-6 6v122a6 6 0 0 0 6 6h24a6 6 0 0 0 6-6V82.571c0-1.06 1.432-1.392 1.898-.44l14.456 29.508a6 6 0 0 0 5.388 3.36h18.516a6 6 0 0 0 5.388-3.36l14.455-29.507c.467-.952 1.899-.62 1.899.439V144a6 6 0 0 0 6 6h24a6 6 0 0 0 6-6V22a6 6 0 0 0-6-6H94.443a6 6 0 0 0-5.635 3.937z"/></g></svg></g><g transform="translate(403.0 120.0) rotate(0.0 46.5 48.5) scale(0.6543489579668744 0.647508427622576)"><svg width="142.126" height="149.805" viewBox="0 0 142.126 149.805"><path d="M142.126 26V6a6 6 0 0 0-6-6H24C18.477 0 8.301 12.661 3.566 18.15L16 124c0 5.523 4.477 10 10 10l98.199 14.209c9.485-5.036 17.927-14.572 17.927-17.209v-24a6 6 0 0 0-6-6H56a4 4 0 0 1-4-4v-9a4 4 0 0 1 4-4l27.342 8.944c9.789-5.771 17.785-11.631 17.785-14.944V60a6 6 0 0 0-6-6H56a4 4 0 0 1-4-4V34c0-2.209 1.791-4-8.059 10.465l79.955.007c13.58-9.828 18.23-15.158 18.23-18.472z" fill="#00e6b3"/><g fill="#142664"><path d="M127.189 17.896s1.578-1.343 3.687-3.194c1.062-1.017 2.336-2.139 3.535-3.329.668-.681 1.381-1.42 1.972-2.168 2.473-2.801 4.46-5.151 4.46-5.151.485-.451.273-1.324-.288-1.919-.637-.662-1.487-.73-1.927-.336 0 0-2.367 2.014-5.098 4.489-.743.614-1.411 1.295-2.124 2.034-1.198 1.189-2.321 2.446-3.307 3.53-1.881 2.053-3.201 3.722-3.201 3.722-.486.451-.273 1.324.288 1.919.714.729 1.639.863 2.003.403zm-.101 97.906s1.393-1.157 3.25-2.758c.93-.885 2.052-1.855 3.099-2.893.582-.595 1.203-1.242 1.71-1.905a273.052 273.052 0 0 0 3.851-4.542c.426-.391.172-1.223-.392-1.816-.639-.661-1.439-.778-1.826-.437 0 0-2.089 1.736-4.49 3.881-.657.528-1.239 1.123-1.86 1.77-1.047 1.038-2.019 2.144-2.874 3.096-1.632 1.803-2.762 3.283-2.762 3.283-.426.391-.172 1.223.392 1.816.715.729 1.59.913 1.902.505z"/><path d="M126.126 39.805v-18a6 6 0 0 0-6-6H10c-5.523 0-10 4.477-10 10v114c0 5.523 4.477 10 10 10h110.126a6 6 0 0 0 6-6v-24a6 6 0 0 0-6-6H40a4 4 0 0 1-4-4v-11a4 4 0 0 1 4-4h39a6 6 0 0 0 6-6v-18a6 6 0 0 0-6-6H40a4 4 0 0 1-4-4v-11a4 4 0 0 1 4-4h80.126a6 6 0 0 0 6-6z"/></g></svg></g><g transform="translate(577.0 118.0) rotate(0.0 51.0 51.0) scale(0.6800544043523482 0.6800544043523482)"><svg width="149.988" height="149.988" viewBox="0 0 149.988 149.988"><path d="M113.988 0h-88C20.465 0 10.093 10.883 3.522 18.372L15.988 36v88c0 5.523 4.477 10 10 10h88l17.241 12.895c5.351-4.89 18.759-17.372 18.759-22.895V10c0-5.523-4.477-10-10-10zm-4 98h-54a4 4 0 0 1-4-4V40a4 4 0 0 1 4-4h54a4 4 0 0 1 4 4v54a4 4 0 0 1-4 4z" fill="#00e6b3"/><g fill="#142664"><path d="M98 15.988H10c-5.523 0-10 4.477-10 10v114c0 5.523 4.477 10 10 10h114c5.523 0 10-4.477 10-10v-114c0-5.523-4.477-10-10-10zm-4 98H40a4 4 0 0 1-4-4v-54a4 4 0 0 1 4-4h54a4 4 0 0 1 4 4v54a4 4 0 0 1-4 4z"/><path d="M39.579 113.148s1.578-1.343 3.687-3.194c1.062-1.017 2.336-2.139 3.535-3.329.667-.681 1.381-1.42 1.972-2.168 2.473-2.801 4.46-5.151 4.46-5.151.485-.451.273-1.324-.288-1.919-.637-.662-1.487-.73-1.927-.336 0 0-2.367 2.014-5.098 4.489-.743.614-1.411 1.295-2.124 2.034-1.198 1.189-2.321 2.446-3.307 3.53-1.881 2.053-3.201 3.722-3.201 3.722-.486.451-.273 1.324.288 1.919.714.729 1.639.864 2.003.403zm93.905-94.07s1.578-1.343 3.687-3.194c1.062-1.017 2.336-2.139 3.535-3.329.668-.681 1.381-1.42 1.972-2.168 2.473-2.801 4.46-5.151 4.46-5.151.485-.451.273-1.324-.288-1.919-.637-.662-1.487-.73-1.927-.336 0 0-2.367 2.014-5.098 4.489-.743.614-1.411 1.295-2.124 2.034-1.198 1.189-2.321 2.446-3.307 3.53-1.881 2.053-3.201 3.722-3.201 3.722-.486.451-.273 1.324.288 1.919.714.728 1.639.863 2.003.403z"/></g></svg></g><g transform="translate(677.0 118.0) rotate(0.0 50.5 51.0) scale(0.6828292115688847 0.680208597303173)"><svg width="147.914" height="149.954" viewBox="0 0 147.914 149.954"><path d="M141.913 0h-25.901c-3.871 0-13.761 11.251-18.72 17.86l5.208 61.655a4 4 0 0 1-1.139 2.318L84.968 98.229a4 4 0 0 1-5.657 0L62.923 81.84a3.997 3.997 0 0 1-1.138-2.316L52.188 5.232A6 6 0 0 0 46.238 0h-24.9C17.365-.046 5.506 11.064.9 18.496l26.833 76.106a9.995 9.995 0 0 0 2.845 5.788l31.834 31.852A5.999 5.999 0 0 0 66.656 134h29.769a5.999 5.999 0 0 0 4.279-1.794l33.062-31.828a10.002 10.002 0 0 0 2.787-5.734l11.313-87.879c.46-3.587-2.335-6.765-5.953-6.765z" fill="#00e6b3"/><g fill="#142664"><path d="M132.554 17.86s1.578-1.343 3.687-3.194c1.062-1.017 2.336-2.139 3.535-3.329.668-.681 1.381-1.42 1.972-2.168 2.473-2.801 4.46-5.151 4.46-5.151.485-.451.273-1.324-.288-1.919-.637-.662-1.487-.729-1.927-.336 0 0-2.367 2.014-5.098 4.489-.743.614-1.411 1.295-2.124 2.034-1.198 1.189-2.321 2.446-3.307 3.53-1.881 2.053-3.201 3.722-3.201 3.722-.486.451-.273 1.324.288 1.919.713.729 1.639.864 2.003.403zm-95.965 0s1.578-1.343 3.687-3.194c1.062-1.017 2.336-2.139 3.535-3.329.668-.681 1.381-1.42 1.972-2.168 2.473-2.801 4.46-5.151 4.46-5.151.485-.451.273-1.324-.288-1.919-.637-.662-1.487-.729-1.927-.336 0 0-2.367 2.014-5.098 4.489-.743.614-1.411 1.295-2.124 2.034-1.198 1.189-2.321 2.446-3.307 3.53-1.881 2.053-3.201 3.722-3.201 3.722-.486.451-.273 1.324.288 1.919.713.729 1.639.864 2.003.403z"/><path d="M125.577 15.954h-23.901a6 6 0 0 0-5.951 5.234l-9.561 74.281a4 4 0 0 1-1.139 2.318l-16.394 16.396a4 4 0 0 1-5.657 0L46.587 97.794a3.997 3.997 0 0 1-1.138-2.316l-9.596-74.292a6 6 0 0 0-5.951-5.231h-23.9c-3.619 0-6.414 3.18-5.951 6.769l11.346 87.833a9.995 9.995 0 0 0 2.845 5.788l31.834 31.852a6 6 0 0 0 4.244 1.759h31.543a5.999 5.999 0 0 0 4.279-1.794l31.288-31.828a10.002 10.002 0 0 0 2.787-5.734l11.313-87.879c.46-3.589-2.335-6.767-5.953-6.767z"/></g></svg></g><g transform="translate(773.0 117.0) rotate(0.0 48.5 51.0) scale(0.6824929991697508 0.6808851506959046)"><svg width="142.126" height="149.805" viewBox="0 0 142.126 149.805"><path d="M142.126 26V6a6 6 0 0 0-6-6H24C18.477 0 8.301 12.661 3.566 18.15L16 124c0 5.523 4.477 10 10 10l98.199 14.209c9.485-5.036 17.927-14.572 17.927-17.209v-24a6 6 0 0 0-6-6H56a4 4 0 0 1-4-4v-9a4 4 0 0 1 4-4l27.342 8.944c9.789-5.771 17.785-11.631 17.785-14.944V60a6 6 0 0 0-6-6H56a4 4 0 0 1-4-4V34c0-2.209 1.791-4-8.059 10.465l79.955.007c13.58-9.828 18.23-15.158 18.23-18.472z" fill="#00e6b3"/><g fill="#142664"><path d="M127.189 17.896s1.578-1.343 3.687-3.194c1.062-1.017 2.336-2.139 3.535-3.329.668-.681 1.381-1.42 1.972-2.168 2.473-2.801 4.46-5.151 4.46-5.151.485-.451.273-1.324-.288-1.919-.637-.662-1.487-.73-1.927-.336 0 0-2.367 2.014-5.098 4.489-.743.614-1.411 1.295-2.124 2.034-1.198 1.189-2.321 2.446-3.307 3.53-1.881 2.053-3.201 3.722-3.201 3.722-.486.451-.273 1.324.288 1.919.714.729 1.639.863 2.003.403zm-.101 97.906s1.393-1.157 3.25-2.758c.93-.885 2.052-1.855 3.099-2.893.582-.595 1.203-1.242 1.71-1.905a273.052 273.052 0 0 0 3.851-4.542c.426-.391.172-1.223-.392-1.816-.639-.661-1.439-.778-1.826-.437 0 0-2.089 1.736-4.49 3.881-.657.528-1.239 1.123-1.86 1.77-1.047 1.038-2.019 2.144-2.874 3.096-1.632 1.803-2.762 3.283-2.762 3.283-.426.391-.172 1.223.392 1.816.715.729 1.59.913 1.902.505z"/><path d="M126.126 39.805v-18a6 6 0 0 0-6-6H10c-5.523 0-10 4.477-10 10v114c0 5.523 4.477 10 10 10h110.126a6 6 0 0 0 6-6v-24a6 6 0 0 0-6-6H40a4 4 0 0 1-4-4v-11a4 4 0 0 1 4-4h39a6 6 0 0 0 6-6v-18a6 6 0 0 0-6-6H40a4 4 0 0 1-4-4v-11a4 4 0 0 1 4-4h80.126a6 6 0 0 0 6-6z"/></g></svg></g><g transform="translate(869.0 116.0) rotate(0.0 51.5 51.5) scale(0.6848950714152725 0.6864881797399344)"><svg width="150.388" height="150.039" viewBox="0 0 150.388 150.039"><path d="M140.039 0h-116C18.516 0 7.667 12.895 3.537 18.409L16.039 67v62a5 5 0 0 0 5 5l13.578 14.489c3.925-2.691 17.422-14.727 17.422-17.489v-24a4 4 0 0 1 4-4h19.483c1.101 0 2.153.454 2.908 1.254l26.905 28.493a4.002 4.002 0 0 0 2.908 1.254l25.315 13.844c5.328-3.997 20.035-15.924 16.199-19.77l-24.066-23.355c-.645-.625-2.228-.128-1.329-.128l6.303 11.901c5.88-3.999 19.374-16.969 19.374-22.492V10c0-5.523-4.477-10-10-10zm-88 63V40a4 4 0 0 1 4-4h54a4 4 0 0 1 4 4v23a4 4 0 0 1-4 4h-54a4 4 0 0 1-4-4z" fill="#00e6b3"/><g fill="#142664"><path d="M124 16.039H10c-5.523 0-10 4.477-10 10v119a5 5 0 0 0 5 5h26a5 5 0 0 0 5-5v-22a4 4 0 0 1 4-4h19.483c1.101 0 2.153.454 2.908 1.254l26.905 28.493a4.002 4.002 0 0 0 2.908 1.254h37.787c3.632 0 5.384-4.451 2.727-6.927l-23.066-22.355c-.645-.625-.202-1.718.696-1.718H124c5.523 0 10-4.477 10-10v-83c0-5.524-4.477-10.001-10-10.001zm-88 63v-23a4 4 0 0 1 4-4h54a4 4 0 0 1 4 4v23a4 4 0 0 1-4 4H40a4 4 0 0 1-4-4z"/><path d="M39.626 82.295s1.578-1.343 3.687-3.194c1.062-1.017 2.336-2.139 3.535-3.329.667-.681 1.381-1.42 1.972-2.168 2.473-2.801 4.46-5.151 4.46-5.151.485-.451.273-1.324-.288-1.919-.637-.662-1.487-.73-1.927-.336 0 0-2.367 2.014-5.098 4.489-.743.614-1.411 1.295-2.124 2.034-1.198 1.189-2.321 2.446-3.307 3.53-1.881 2.053-3.201 3.722-3.201 3.722-.486.451-.273 1.324.288 1.919.713.729 1.639.863 2.003.403z"/></g></svg></g><g transform="translate(909.0 903.0) rotate(30.99443600016423 40.5 55.0) scale(3.6458567763424408 3.5839958295321255)"><svg width="22.217" height="30.692" viewBox="0 0 22.217 30.692"><g fill="#ff2e93"><path d="M10.455 15.578c0-1 .1-1.9.1-1.9 0-.6.3-1.2.8-1.5s1.1-.4 1.7-.3c0 0 1.6.7 3.4 1.5 2.4 1.1 5.1 2.4 5.1 2.4.5.2.8.7.6 1.2s-.7.8-1.2.6c0 0-2.9-.6-5.5-1.2-.4-.1-.7-.2-1.1-.3 0 1-.1 1.9-.1 1.9 0 .6-.3 1.1-.8 1.5-.5.3-1.1.4-1.7.3 0 0-1.6-.6-3.4-1.4-2.4-1-5-2.2-5-2.2-.5-.2-.8-.7-.6-1.2s.7-.8 1.2-.6c0 0 2.9.5 5.4 1 .4.1.8.2 1.1.2zm-6.7-9.8c-.3-.3-.5-.6-.5-.6-.4-.4-.6-1-.5-1.6s.5-1.1 1-1.4c0 0 1.1-.5 2.5-.9 1.8-.6 3.8-1.2 3.8-1.2.5-.2 1 0 1.3.4.2.5 0 1-.4 1.3 0 0-1.7 1.3-3.2 2.3h-.1l.5.5c.4.4.6 1 .5 1.6s-.5 1.1-1 1.4c0 0-1.1.5-2.4.9-1.7.6-3.7 1.2-3.7 1.2-.5.2-1 .1-1.3-.4-.2-.5-.1-1 .4-1.3-.1.2 1.5-1.1 3.1-2.2zm3.5 21.9c-.2.4-.4.6-.4.6-.3.5-.8.8-1.4.9s-1.2-.2-1.6-.6c0 0-.7-.9-1.5-2.1-1-1.5-2.1-3.3-2.1-3.3-.4-.4-.3-1 .1-1.3.4-.4 1-.3 1.3.1 0 0 1.7 1.2 3.1 2.4l.1.1c.2-.4.4-.6.4-.6.3-.5.8-.9 1.4-.9.6-.1 1.2.2 1.6.6 0 0 .7 1 1.5 2.2 1 1.6 2.1 3.4 2.1 3.4.3.4.3 1-.1 1.3s-1 .3-1.3-.1c0-.1-1.7-1.4-3.2-2.7z"/></g></svg></g></svg>